<?xml version="1.0" encoding="utf-8"?>
<!-- Generator: Adobe Illustrator 16.0.0, SVG Export Plug-In . SVG Version: 6.00 Build 0)  -->
<!DOCTYPE svg PUBLIC "-//W3C//DTD SVG 1.1//EN" "http://www.w3.org/Graphics/SVG/1.1/DTD/svg11.dtd">
<svg version="1.1" id="Layer_1" xmlns="http://www.w3.org/2000/svg" xmlns:xlink="http://www.w3.org/1999/xlink" x="0px" y="0px"
	 width="46.998px" height="46.998px" viewBox="0 0 46.998 46.998" enable-background="new 0 0 46.998 46.998" xml:space="preserve">
<g>
	<path fill="#1C75BC" d="M38.849,3.278c-0.119-0.173-0.422-0.32-0.713-0.152c-0.105,0.062-1.445,0.836-2.422,1.398l-0.967,0.559
		L14.686,16.665c-0.002,0.002-0.004,0.004-0.008,0.006c0.002-0.002,0.004-0.002,0.006-0.004c-4.721,2.728-6.346,8.789-3.617,13.511
		c0.072,0.126,0.146,0.247,0.225,0.366c0.25,0.396,0.525,0.768,0.822,1.113c-0.012-0.012-0.02-0.02-0.02-0.02l3.506,4.18
		c0.479,0.57,1.33,0.646,1.898,0.166c0.311-0.26,0.473-0.629,0.48-1.004c0.008-0.316-0.094-0.637-0.314-0.896l-3.533-4.211
		c0,0-0.385-0.446-0.73-1.043c-1.986-3.439-0.807-7.842,2.633-9.828L37.062,6.86c0.002-0.001,0.004-0.002,0.004-0.003
		c0.002,0,0.002,0,0.002,0c0.357-0.207,0.757-0.557,0.996-0.911c0.281-0.416,0.353-0.626,0.465-0.984c0,0,0.357-1.077,0.398-1.207
		C38.964,3.645,38.972,3.458,38.849,3.278z"/>
	<path fill="#1C75BC" d="M36.024,9.215c-0.107-0.156-0.379-0.288-0.644-0.138c-0.094,0.055-1.303,0.752-2.18,1.26l-0.871,0.502
		l-15.76,9.1c-1.723,0.997-2.777,2.706-3.006,4.541l20.852-12.04c0.002-0.001,0.004-0.002,0.004-0.003c0.002,0,0.002,0,0.002,0
		c0.322-0.186,0.681-0.501,0.896-0.818c0.254-0.375,0.316-0.563,0.418-0.887c0,0,0.322-0.97,0.359-1.086
		C36.128,9.544,36.136,9.376,36.024,9.215z"/>
	<path fill="#1C75BC" d="M33.063,14.917c-0.094-0.139-0.336-0.256-0.568-0.123c-0.084,0.049-1.156,0.668-1.938,1.119l-0.773,0.447
		l-16.247,9.379c0.061,0.729,0.254,1.461,0.59,2.152l17.508-10.107c0.003-0.002,0.003-0.002,0.005-0.002c0,0,0,0,0.002,0
		c0.284-0.166,0.604-0.445,0.795-0.729c0.227-0.333,0.28-0.501,0.373-0.788c0,0,0.285-0.862,0.315-0.965
		C33.157,15.21,33.163,15.061,33.063,14.917z"/>
	<path fill="#1C75BC" d="M29.972,20.385c-0.084-0.121-0.295-0.224-0.5-0.106c-0.072,0.043-1.012,0.586-1.695,0.979l-0.676,0.39
		l-12.417,7.169c0.076,0.107,0.156,0.214,0.24,0.312c0.025,0.031,0.049,0.062,0.072,0.094h0.002l0.9,1.072l12.825-7.403
		c0-0.001,0.002-0.001,0.002-0.002h0.002c0.25-0.146,0.529-0.39,0.697-0.638c0.195-0.291,0.244-0.438,0.324-0.688
		c0,0,0.25-0.755,0.279-0.845C30.052,20.641,30.056,20.511,29.972,20.385z"/>
	<path fill="#1C75BC" d="M26.313,25.528c-0.062,0.035-0.867,0.502-1.453,0.84l-0.58,0.334l-7.678,4.436l1.057,1.258l8.012-4.625
		c0,0,0.002,0,0.002-0.002c0.002,0,0.002,0,0.002,0c0.215-0.123,0.453-0.334,0.598-0.547c0.168-0.248,0.211-0.375,0.277-0.59
		c0,0,0.215-0.646,0.238-0.725c0.021-0.066,0.027-0.18-0.047-0.287C26.671,25.517,26.489,25.428,26.313,25.528z"/>
	<path fill="#1C75BC" d="M24.091,29.928l-3.127,1.806c0.123,0.166,0.238,0.339,0.344,0.521c1.49,2.58,0.605,5.881-1.977,7.369
		c-2.324,1.344-5.23,0.76-6.875-1.256l-0.008-0.01l-1.225-1.459c-0.639-0.762-1.773-0.859-2.533-0.222
		c-0.762,0.638-0.859,1.771-0.221,2.533l1.17,1.396l0,0c2.732,3.391,7.602,4.377,11.488,2.133c4.304-2.482,5.776-7.981,3.293-12.283
		C24.317,30.272,24.206,30.101,24.091,29.928z"/>
</g>
</svg>
